HIERARCHY
ROOT Hips
{
  OFFSET 3.13124 94.3669 -3.18751
  CHANNELS  6 Xposition Yposition Zposition Zrotation Xrotation Yrotation
  JOINT LeftUpLeg
  {
    OFFSET 8.64259 1.95398 -2.38835
    CHANNELS 3 Zrotation Xrotation Yrotation
    JOINT LeftLeg
    {
      OFFSET 43.7702 0 0
      CHANNELS 3 Zrotation Xrotation Yrotation
      JOINT LeftFoot
      {
        OFFSET 40.6238 0 0
        CHANNELS 3 Zrotation Xrotation Yrotation
        JOINT LeftToeBase
        {
          OFFSET 12.7242 0 0
          CHANNELS 3 Zrotation Xrotation Yrotation
          End Site
          {
            OFFSET 0 0 0
          }
        }
      }
    }
  }
  JOINT RightUpLeg
  {
    OFFSET -8.2249 1.95398 -2.59336
    CHANNELS 3 Zrotation Xrotation Yrotation
    JOINT RightLeg
    {
      OFFSET 43.5653 0 0
      CHANNELS 3 Zrotation Xrotation Yrotation
      JOINT RightFoot
      {
        OFFSET 40.6238 0 0
        CHANNELS 3 Zrotation Xrotation Yrotation
        JOINT RightToeBase
        {
          OFFSET 12.7242 0 0
          CHANNELS 3 Zrotation Xrotation Yrotation
          End Site
          {
            OFFSET 0 0 0
          }
        }
      }
    }
  }
  JOINT Spine
  {
    OFFSET 0.165834 0.87714 6.61349
    CHANNELS 3 Zrotation Xrotation Yrotation
    JOINT Spine1
    {
      OFFSET 7.38962 1.71661e-005 0
      CHANNELS 3 Zrotation Xrotation Yrotation
      JOINT Spine2
      {
        OFFSET 11.9445 1.14441e-005 0
        CHANNELS 3 Zrotation Xrotation Yrotation
        JOINT Spine3
        {
          OFFSET 14.7254 4.19617e-005 0
          CHANNELS 3 Zrotation Xrotation Yrotation
          JOINT Spine4
          {
            OFFSET 10.9679 0 0
            CHANNELS 3 Zrotation Xrotation Yrotation
            JOINT RightShoulder
            {
              OFFSET 2.46616 -1.6653 3.69651
              CHANNELS 3 Zrotation Xrotation Yrotation
              JOINT RightArm
              {
                OFFSET 13.0012 0 0
                CHANNELS 3 Zrotation Xrotation Yrotation
                JOINT RightForeArm
                {
                  OFFSET 28.7848 1.52588e-005 0
                  CHANNELS 3 Zrotation Xrotation Yrotation
                  JOINT RightHand
                  {
                    OFFSET 26.5688 1.52588e-005 0
                    CHANNELS 3 Zrotation Xrotation Yrotation
                    End Site
                    {
                      OFFSET 0 0 0
                    }
                  }
                }
              }
            }
            JOINT LeftShoulder
            {
              OFFSET 2.38034 -1.29275 -3.75231
              CHANNELS 3 Zrotation Xrotation Yrotation
              JOINT LeftArm
              {
                OFFSET 16.3182 6.10352e-005 0
                CHANNELS 3 Zrotation Xrotation Yrotation
                JOINT LeftForeArm
                {
                  OFFSET 27.0901 0 0
                  CHANNELS 3 Zrotation Xrotation Yrotation
                  JOINT LeftHand
                  {
                    OFFSET 24.5451 1.52588e-005 0
                    CHANNELS 3 Zrotation Xrotation Yrotation
                    End Site
                    {
                      OFFSET 0 0 0
                    }
                  }
                }
              }
            }
            JOINT Neck
            {
              OFFSET 5.0226 -0.0266342 0
              CHANNELS 3 Zrotation Xrotation Yrotation
              JOINT Head
              {
                OFFSET 6.69363 2.86102e-005 0
                CHANNELS 3 Zrotation Xrotation Yrotation
                End Site
                {
                  OFFSET 0 0 0
                }
              }
            }
          }
        }
      }
    }
  }
}
MOTION
Frames:	6
Frame Time:	0.0333333
-1.90135 90.6402 -69.3213 -86.506 39.0646 -87.8271 -177.635 -8.32406 94.1694 -22.218 39.5001 2.30683 65.819 -9.90846 -5.48111 28.7808 6.7949e-006 7.09447e-006 179.413 33.8394 92.2952 -34.5329 -12.4316 -0.878468 47.0186 3.99643 3.67853 28.7808 1.16263e-005 1.97383e-005 2.29921 5.61721 -91.1384 15.7192 4.00767 -3.31502 4.04984 3.85795 -3.48817 -18.5208 4.81826 -1.95609 1.49188 4.81827 -1.9561 88.524 -44.0522 -104.721 31.9186 7.57615 -37.7871 -4.86649 -35.067 -5.21564 -39.2311 0.933941 -7.9309 -66.2093 -45.3935 115.609 -9.41046 -18.3973 2.60998 1.60333 -49.4939 -2.50667 57.3016 5.03959 4.60509 35.5483 6.14293 33.0105 -34.4124 -1.41967 -28.2442 
-4.61148 91.8813 -72.4709 -88.2856 32.7725 -86.182 -175.87 -8.48559 98.5648 -23.473 46.5186 2.82371 47.6835 -22.6462 -18.0383 28.7808 6.7949e-006 7.09447e-006 179.58 27.5585 91.4891 -32.7568 -8.95558 -0.673943 51.0982 3.8677 3.25085 28.7808 1.16263e-005 1.97383e-005 2.30183 5.72668 -91.1315 15.4824 4.07324 -2.94235 3.81419 3.93983 -3.11881 -18.7631 4.76905 -1.58051 1.24957 4.76907 -1.58053 87.2756 -39.7607 -108.192 36.648 3.24003 -40.343 -5.02362 -34.8398 -5.51005 -41.9309 -3.74679 5.27247 -65.7493 -44.6246 116.505 -5.12672 -19.7105 1.51173 1.52264 -60.484 -2.3446 61.3302 4.51722 3.02655 36.6294 6.00029 34.3915 -36.2775 -1.66291 -29.8638 
-7.10288 94.1156 -74.9004 -87.8813 25.3489 -86.6056 -174.771 -6.34693 101.39 -22.0588 51.4662 3.20298 31.8065 -26.8448 -28.1352 28.7808 6.7949e-006 7.09447e-006 179.678 21.0585 90.2578 -25.6667 -2.48273 -0.254397 49.1141 6.1979 5.20016 28.7808 1.16263e-005 1.97383e-005 2.26095 5.70023 -90.8923 15.505 4.20339 -2.04597 3.83872 4.10958 -2.22921 -18.7466 4.62053 -0.68571 1.26601 4.62053 -0.685734 87.3803 -37.2741 -108.91 37.4813 0.992044 -31.2084 -25.175 -40.2708 -34.3279 -21.2315 -2.71545 10.1881 -66.6655 -43.9401 115.209 -0.354028 -21.2424 0.474812 1.49522 -70.1534 -2.16958 59.0021 2.52176 0.0215968 39.2514 4.45839 33.6095 -40.2375 -2.22782 -30.5456 
-9.43077 97.2201 -76.7955 -87.8851 19.543 -87.6485 -175.544 -3.19522 100.467 -23.219 39.8504 2.30024 32.7179 -21.3864 -22.5672 28.7808 6.7949e-006 7.09447e-006 179.227 8.72244 88.36 -5.65454 1.42456 0.0583398 36.5477 10.1223 10.4131 28.7808 1.16263e-005 1.97383e-005 2.44998 5.72848 -90.4008 15.4536 4.80391 -1.19153 3.7908 4.7468 -1.40224 -18.8171 4.93942 0.310873 1.1956 4.93941 0.310855 88.944 -33.7942 -107.427 39.9564 -0.261356 -43.4032 -6.58856 -56.9297 -6.32296 -35.9931 -0.32989 -4.20084 -68.2882 -44.7168 112.441 -0.824579 -21.2087 -0.196409 1.50615 -64.2002 -2.28296 54.7058 0.295828 -3.65993 39.3298 2.12908 34.4199 -42.6852 -3.22671 -33.0731 
-11.4795 99.2905 -78.7507 -89.2276 17.2503 -90.0647 -176.535 -1.67226 96.1718 -24.6678 14.183 0.840566 40.863 -14.4948 -13.7074 28.7808 6.7949e-006 7.09447e-006 178.562 5.42907 85.1184 -3.88209 1.9659 0.0883116 28.5693 15.7291 18.1206 28.7808 1.16263e-005 1.97383e-005 2.78103 6.05659 -88.2275 14.942 5.95006 -0.516685 3.28445 5.92152 -0.778971 -19.3572 5.82927 1.30174 0.655393 5.82928 1.30173 89.783 -27.8965 -108.035 42.0009 -2.4512 -44.3227 -8.33857 -66.8535 -7.84462 -39.6417 0.322268 -6.08377 -69.9813 -46.1933 109.513 1.5733 -22.2799 -2.074 1.51124 -62.9662 -2.30391 59.9912 0.45824 -3.45905 38.9276 -0.22048 35.915 -44.2604 -3.99076 -37.0068 
-12.9574 100.915 -80.1746 -90.5476 15.9213 -91.7866 -177.417 -1.8684 92.6465 -19.9828 -0.779924 -0.0502602 37.0398 -8.26343 -8.98118 28.7808 6.7949e-006 7.09447e-006 177.616 4.57709 82.0989 -3.81548 -3.61202 -0.232015 17.793 20.4733 28.0868 28.7808 1.16263e-005 1.97383e-005 3.057 6.46836 -86.9961 14.2389 6.86386 0.0045827 2.58619 6.85743 -0.298973 -20.0856 6.54319 2.07631 -0.0729906 6.54318 2.07629 90.9283 -22.3597 -107.986 42.8712 -4.5641 -47.6306 -11.4785 -75.4188 -10.7761 -40.7982 1.09109 -8.12687 -71.3899 -48.6645 107.004 3.92266 -23.0084 -1.96538 1.52233 -60.6827 -2.34108 62.7319 0.038259 -4.17166 37.9329 -1.10658 39.9638 -45.2683 -3.48478 -43.5419 
